PathFileType	4	(X/Y/Z)	C:\Users\wzy\Desktop\s001_20220513_walk_1_markers.trc
DataRate	CameraRate	NumFrames	NumMarkers	Units	OrigDataRate	OrigDataStartFrame	OrigNumFrames
250.000000	250.000000	4	99	mm	250.000000	673	1078
Frame#	Time	QTMMod_head_top			QTMMod_head_l_ant			QTMMod_head_r_ant			QTMMod_head_r_post			QTMMod_head_l_post			QTMMod_trunk_l_acro			QTMMod_trunk_r_acro			QTMMod_trunk_manu			QTMMod_trunk_xyph			QTMMod_trunk_abdl			QTMMod_trunk_c7			QTMMod_trunk_t8			QTMMod_trunk_t12			QTMMod_l_sho_ant			QTMMod_l_sho_post			QTMMod_l_bicep			QTMMod_l_tricep			QTMMod_l_elb_lat			QTMMod_l_elb_med			QTMMod_l_farm_ant			QTMMod_l_farm_post			QTMMod_l_wri_lat			QTMMod_l_wri_med			QTMMod_l_hand			QTMMod_l_thmb			QTMMod_r_sho_ant			QTMMod_r_sho_post			QTMMod_r_bicep			QTMMod_r_tricep			QTMMod_r_elb_lat			QTMMod_r_elb_med			QTMMod_r_farm_ant			QTMMod_r_farm_post			QTMMod_r_wri_lat			QTMMod_r_wri_med			QTMMod_r_hand			QTMMod_r_thmb			QTMMod_pelvis_l_asis			QTMMod_pelvis_r_asis			QTMMod_pelvis_r			QTMMod_pelvis_r_ilcr			QTMMod_pelvis_r_psis			QTMMod_pelvis_sac			QTMMod_pelvis_l_psis			QTMMod_pelvis_l_ilcr			QTMMod_pelvis_l			QTMMod_l_hip_grtr			QTMMod_l_thigh_antprox			QTMMod_l_thigh_postprox			QTMMod_l_thigh_postdist			QTMMod_l_thigh_antdist			QTMMod_l_thigh_ant			QTMMod_l_thigh_med			QTMMod_l_thigh_pos			QTMMod_l_knee_lat			QTMMod_l_knee_med			QTMMod_l_shank_antprox			QTMMod_l_shank_postprox			QTMMod_l_shank_postdist			QTMMod_l_shank_antdist			QTMMod_l_shank_med			QTMMod_l_ank_lat			QTMMod_l_ank_med			QTMMod_l_foot_heel			QTMMod_l_foot_lat			QTMMod_l_foot_m5			QTMMod_l_foot_m2			QTMMod_l_foot_toe			QTMMod_l_foot_m1			QTMMod_l_foot_med			QTMMod_l_foot_navi			QTMMod_r_hip_grtr			QTMMod_r_thigh_antprox			QTMMod_r_thigh_postprox			QTMMod_r_thigh_postdist			QTMMod_r_thigh_antdist			QTMMod_r_thigh_ant			QTMMod_r_thigh_med			QTMMod_r_thigh_pos			QTMMod_r_knee_lat			QTMMod_r_knee_med			QTMMod_r_shank_antprox			QTMMod_r_shank_postprox			QTMMod_r_shank_postdist			QTMMod_r_shank_antdist			QTMMod_r_shank_med			QTMMod_r_ank_lat			QTMMod_r_ank_med			QTMMod_r_foot_heel			QTMMod_r_foot_lat			QTMMod_r_foot_m5			QTMMod_r_foot_m2			QTMMod_r_foot_toe			QTMMod_r_foot_m1			QTMMod_r_foot_med			QTMMod_r_foot_navi			QTMMod_head_l			QTMMod_head_r			QTMMod_head_front			
		X1	Y1	Z1	X2	Y2	Z2	X3	Y3	Z3	X4	Y4	Z4	X5	Y5	Z5	X6	Y6	Z6	X7	Y7	Z7	X8	Y8	Z8	X9	Y9	Z9	X10	Y10	Z10	X11	Y11	Z11	X12	Y12	Z12	X13	Y13	Z13	X14	Y14	Z14	X15	Y15	Z15	X16	Y16	Z16	X17	Y17	Z17	X18	Y18	Z18	X19	Y19	Z19	X20	Y20	Z20	X21	Y21	Z21	X22	Y22	Z22	X23	Y23	Z23	X24	Y24	Z24	X25	Y25	Z25	X26	Y26	Z26	X27	Y27	Z27	X28	Y28	Z28	X29	Y29	Z29	X30	Y30	Z30	X31	Y31	Z31	X32	Y32	Z32	X33	Y33	Z33	X34	Y34	Z34	X35	Y35	Z35	X36	Y36	Z36	X37	Y37	Z37	X38	Y38	Z38	X39	Y39	Z39	X40	Y40	Z40	X41	Y41	Z41	X42	Y42	Z42	X43	Y43	Z43	X44	Y44	Z44	X45	Y45	Z45	X46	Y46	Z46	X47	Y47	Z47	X48	Y48	Z48	X49	Y49	Z49	X50	Y50	Z50	X51	Y51	Z51	X52	Y52	Z52	X53	Y53	Z53	X54	Y54	Z54	X55	Y55	Z55	X56	Y56	Z56	X57	Y57	Z57	X58	Y58	Z58	X59	Y59	Z59	X60	Y60	Z60	X61	Y61	Z61	X62	Y62	Z62	X63	Y63	Z63	X64	Y64	Z64	X65	Y65	Z65	X66	Y66	Z66	X67	Y67	Z67	X68	Y68	Z68	X69	Y69	Z69	X70	Y70	Z70	X71	Y71	Z71	X72	Y72	Z72	X73	Y73	Z73	X74	Y74	Z74	X75	Y75	Z75	X76	Y76	Z76	X77	Y77	Z77	X78	Y78	Z78	X79	Y79	Z79	X80	Y80	Z80	X81	Y81	Z81	X82	Y82	Z82	X83	Y83	Z83	X84	Y84	Z84	X85	Y85	Z85	X86	Y86	Z86	X87	Y87	Z87	X88	Y88	Z88	X89	Y89	Z89	X90	Y90	Z90	X91	Y91	Z91	X92	Y92	Z92	X93	Y93	Z93	X94	Y94	Z94	X95	Y95	Z95	X96	Y96	Z96	X97	Y97	Z97	X98	Y98	Z98	X99	Y99	Z99	

674	2.692	1303.457885742188	1636.782348632812	-225.2649688720704	1369.557861328125	1544.4267578125	-310.7759704589844	1380.709716796875	1558.577514648438	-145.802230834961	1284.785522460938	1528.509643554688	-142.596649169922	1259.135498046875	1508.172485351562	-293.8629150390626	1321.840087890625	1360.246948242188	-381.9969177246094	1336.077026367188	1341.785766601562	-62.50095748901376	1385.333129882812	1313.355346679688	-226.4201660156251	1448.964233398438	1095.115112304688	-225.1162567138673	1476.999877929688	961.5071411132814	-215.3286132812501	1262.725952148438	1389.5654296875	-217.5131378173829	1203.642944335938	1179.639404296875	-227.328582763672	1216.254272460938	1084.7783203125	-221.8919677734376	1364.65380859375	1303.795043945312	-376.0558166503907	1248.885620117188	1328.713134765625	-381.7055664062501	1329.150390625	1149.63525390625	-429.8664245605469	1229.033203125	1167.002685546875	-394.8360595703126	1271.864501953125	1040.982299804688	-477.1847839355469	1248.525146484375	1021.536865234375	-382.2961425781251	1279.146728515625	922.3958129882814	-419.4335937500001	1250.949951171875	940.7371215820314	-494.3696899414063	1295.15771484375	793.6113281250001	-471.5431518554688	1239.09228515625	807.3013305664064	-511.7684020996094	1261.525024414062	745.3004150390626	-518.6983642578126	1294.38525390625	743.4547119140626	-471.8556823730469	1386.897216796875	1290.46875	-82.65982055664071	1260.569702148438	1301.754760742188	-60.41532135009773	1404.583129882812	1149.451538085938	-36.11589050292977	1300.315307617188	1122.497924804688	-14.53520107269295	1415.0693359375	1026.12255859375	28.38048553466788	1362.494018554688	998.8522338867189	-51.32869720458993	1443.0556640625	957.7316894531251	-50.03364181518563	1425.93115234375	951.0747680664064	35.11674118041984	1545.215942382812	844.2653198242189	-41.5036392211915	1508.628051757812	807.6879272460939	6.062356948852447	1566.097290039062	776.2853393554689	-5.275271892547703	1584.30615234375	806.0684204101564	-45.21937942504893	1428.990112304688	955.5344238281251	-330.3544311523439	1417.271484375	948.3214721679689	-96.71916198730477	1306.383911132812	978.4462890625001	-54.21014404296883	1313.729370117188	993.7144165039064	-51.97509765625008	1218.799682617188	986.7922973632814	-177.5238037109376	1213.939575195312	982.6331176757814	-231.4059295654298	1220.625610351562	984.7576904296876	-281.1839294433594	1346.3408203125	1007.962097167969	-389.9208068847657	1360.985229492188	959.2567749023439	-393.9808654785157	1353.216796875	917.4132690429689	-415.5729675292969	1502.182006835938	647.7236328125001	-371.3316040039064	1438.681640625	614.4691772460939	-372.5621032714845	1481.922973632812	530.9093017578126	-345.1203918457032	1543.977172851562	568.3734741210939	-338.0270385742189	1574.880249023438	575.4566650390626	-270.7034606933595	1506.789428710938	623.3605957031251	-212.3191833496095	1397.261352539062	553.3037109375001	-298.7937622070314	1550.354736328125	498.4789428710939	-318.2456359863282	1537.62939453125	496.0183105468751	-210.9316406250001	1578.4775390625	358.112518310547	-329.2797241210939	1506.118774414062	349.4568176269532	-341.0880737304689	1514.88720703125	277.2457580566407	-330.3012084960939	1586.990356445312	285.0041809082032	-326.2585449218751	1574.89892578125	318.1175231933595	-215.1841430664063	1603.240234375	88.48358154296885	-299.9881286621095	1600.826904296875	95.82766723632822	-212.1204071044923	1542.421142578125	61.50772857666025	-264.4876403808595	1663.05859375	53.35680389404307	-300.2041320800782	1728.101928710938	49.85382843017589	-296.7564392089845	1757.808837890625	78.77507781982433	-235.4377899169923	1801.92724609375	77.76467895507824	-250.3420715332032	1720.225341796875	64.67893218994151	-203.0068817138673	1661.56103515625	55.80517196655283	-202.7259979248048	1671.9501953125	111.2808914184571	-251.1650543212892	1344.184814453125	928.0457763671876	-39.11919784545907	1334.632690429688	626.3771362304689	-71.44168090820321	1264.315307617188	646.0224609375001	-55.99116897583016	1241.41064453125	554.4241943359376	-81.22965240478523	1307.927612304688	533.9504394531251	-93.22721862792977	1321.989868164062	495.3977661132813	-162.4110260009766	1352.789306640625	590.0587158203126	-204.725570678711	1197.62548828125	634.4857177734376	-156.5915832519532	1248.540405273438	462.4029846191407	-111.8055953979493	1256.857177734375	453.7493896484376	-210.0985107421876	1171.002197265625	351.8380432128907	-101.3569564819337	1118.072998046875	401.8941040039063	-92.06752777099616	1066.929809570312	346.5281066894532	-95.47837829589851	1117.659057617188	296.7328491210938	-105.2342147827149	1153.572998046875	322.0967407226563	-206.1000061035157	958.51904296875	140.9358215332032	-138.5461730957032	975.6927490234375	152.0932617187501	-223.0775299072266	892.4562377929688	147.6573944091797	-178.901107788086	998.08544921875	69.60544586181646	-139.2612304687501	1039.652587890625	35.24529647827155	-131.6731262207032	1076.5068359375	50.25399398803717	-206.6830444335938	1121.51806640625	39.29276657104499	-208.9173736572266	1058.956176757812	27.91499519348151	-247.6533203125001	1004.557556152344	81.21615600585943	-234.5649414062501	1032.798706054688	120.0464630126954	-183.5562438964844	1314.3466796875	1526.299682617188	-302.3194580078126	1332.74755859375	1543.543579101562	-144.199447631836	1375.1337890625	1551.502075195312	-228.2891082763673	
675	2.696	1308.029174804688	1637.14990234375	-225.9895019531251	1374.4130859375	1544.9111328125	-311.3004760742188	1385.327880859375	1559.182495117188	-146.450164794922	1289.5302734375	1528.815551757812	-143.2256011962891	1263.968017578125	1508.412475585938	-294.6726989746094	1326.975463867188	1360.421997070312	-382.6611938476563	1341.36669921875	1342.2783203125	-62.95679855346688	1390.251220703125	1313.718872070312	-226.857391357422	1454.462646484375	1095.590698242188	-225.6693267822266	1482.682495117188	961.9334716796876	-215.6136474609376	1267.837890625	1390.000610351562	-218.0137634277345	1208.9228515625	1179.837646484375	-227.7478942871095	1221.688232421875	1085.066650390625	-222.0846710205079	1369.95654296875	1304.047241210938	-376.6844787597657	1253.856323242188	1328.8662109375	-382.1879272460938	1334.609497070312	1149.774780273438	-430.4874572753907	1235.422607421875	1166.02734375	-394.9627075195313	1277.074096679688	1041.052124023438	-477.8966674804688	1253.695922851562	1021.354125976563	-382.9471740722657	1285.026489257812	922.4879150390626	-420.1259460449219	1256.639404296875	940.7294311523439	-494.9021911621094	1300.917114257812	793.6452026367189	-472.0108032226563	1245.0595703125	807.1905517578126	-512.2299804687501	1267.72119140625	745.2639770507814	-519.2730712890626	1300.7119140625	743.5944213867189	-472.5425415039063	1392.305419921875	1291.168334960938	-82.94772338867196	1265.94775390625	1302.054565429688	-60.86472320556648	1409.412719726562	1149.693725585938	-36.38785934448251	1304.593872070312	1123.344848632812	-15.35325336456307	1419.139282226562	1026.215698242188	28.33143806457511	1366.353393554688	999.7193603515626	-51.81766510009774	1446.864135742188	957.2292480468751	-49.93847656250009	1429.299438476562	951.1368408203126	35.12409973144523	1548.107788085938	842.6940307617189	-40.72834396362314	1510.781982421875	806.8275756835939	7.063820362090972	1567.987426757812	774.7301025390626	-3.921184778213597	1586.680541992188	803.8676147460939	-44.05888366699229	1434.392822265625	956.1071166992189	-330.2663574218751	1423.67431640625	948.6206054687501	-97.68955230712899	1311.681640625	978.4368896484376	-54.14328384399422	1320.22705078125	993.8372802734376	-51.70154190063484	1224.576904296875	987.0216064453126	-177.4861450195313	1219.676147460938	982.9356689453126	-231.222137451172	1225.996337890625	985.2814331054689	-281.0447082519532	1351.818603515625	1008.82373046875	-390.1887817382813	1366.37939453125	960.3211669921876	-394.0798645019532	1358.724609375	918.6397705078126	-415.8069152832032	1507.598266601562	648.8443603515626	-372.8461914062501	1443.36962890625	615.4415283203126	-372.5693359375001	1486.747680664062	531.7652587890626	-345.1639709472657	1548.902221679688	568.9443359375001	-338.3763122558595	1579.554077148438	575.9151611328126	-270.7638244628907	1511.500610351562	623.6647949218751	-212.5516815185548	1405.383178710938	552.4046020507814	-298.1580810546876	1555.359252929688	499.2252502441407	-317.970916748047	1540.8955078125	496.6736145019532	-210.7900695800782	1582.891845703125	358.2393798828126	-329.0164489746095	1510.542358398438	350.1150817871095	-341.7279052734376	1518.573974609375	278.2345275878907	-331.1156616210939	1590.83837890625	285.0376892089845	-325.9781188964845	1578.092529296875	318.3679809570314	-214.601547241211	1604.200561523438	88.37554931640635	-299.8392028808595	1601.668823242188	95.93917083740244	-212.0937652587891	1542.947631835938	61.85032272338876	-264.3929443359376	1663.56787109375	52.89933395385752	-300.1860961914064	1728.66796875	48.48467254638683	-296.4680480957032	1758.773193359375	76.55224609375011	-234.9344482421876	1802.844482421875	75.27349090576183	-249.8941040039064	1720.838623046875	62.90094757080089	-202.8692321777345	1662.533569335938	54.85793685913096	-202.0802612304689	1673.103515625	110.4332504272462	-250.8690338134767	1350.222412109375	928.0741577148439	-39.37247085571298	1343.105590820312	627.0014648437501	-70.93579101562509	1271.08935546875	645.6383666992189	-56.29603958129891	1248.742431640625	553.9806518554689	-80.8758621215821	1315.291015625	533.7208251953126	-92.7958526611329	1331.403564453125	494.9509277343751	-162.2501678466798	1360.122680664062	589.7556762695314	-204.5780487060548	1204.743774414062	633.6062622070314	-156.8577880859376	1256.034423828125	461.8070678710938	-111.1368942260743	1264.765747070312	452.8529357910157	-209.3959197998048	1177.099243164062	351.9889526367188	-100.4937591552735	1124.834594726562	402.7702331542969	-91.64614105224616	1072.897705078125	348.0250549316407	-95.08422088623054	1123.018432617188	297.4530334472657	-104.5649490356446	1159.551879882812	322.3198547363282	-205.2390441894532	962.0789184570312	143.4405364990235	-137.9492492675782	979.8428955078125	154.4346771240235	-222.3096771240235	896.5335693359375	152.0874481201172	-178.4256591796876	999.4193725585938	70.69177246093756	-138.8424377441407	1040.1474609375	35.30948638916022	-131.7919464111329	1077.241577148438	50.292709350586	-206.6591491699219	1121.901489257812	38.9701118469239	-208.8405456542969	1059.2255859375	28.12430763244635	-247.6504669189454	1006.801391601562	82.8902206420899	-234.1292724609376	1036.106811523438	120.9684677124024	-182.7440490722657	1319.190551757812	1526.661865234375	-302.9866027832032	1337.429077148438	1543.9990234375	-144.8378906250001	1379.870483398438	1552.046875	-228.8753204345704	
676	2.7	1312.526245117188	1637.568725585938	-226.7120971679688	1379.124267578125	1545.387451171875	-311.9493713378907	1389.944091796875	1559.82080078125	-147.1187896728516	1294.2080078125	1529.17138671875	-143.9303131103516	1268.82421875	1508.656372070312	-295.3330993652344	1332.068603515625	1360.75	-383.2941894531251	1346.78515625	1342.680419921875	-63.4340248107911	1395.519775390625	1314.348266601562	-227.5451660156251	1459.870971679688	1096.11376953125	-226.0708160400391	1488.31396484375	962.6279296875001	-215.952606201172	1273.069580078125	1390.3232421875	-218.6153564453126	1214.269653320312	1180.239013671875	-228.012435913086	1227.150512695312	1085.420654296875	-222.3605499267579	1374.915283203125	1304.440185546875	-377.1240844726563	1259.00732421875	1329.0458984375	-382.9067077636719	1340.232666015625	1149.977416992188	-431.0691833496094	1238.1982421875	1167.9072265625	-395.2483825683594	1282.635498046875	1041.176513671875	-478.4927673339844	1260.08544921875	1021.59423828125	-383.4244079589844	1290.896362304688	922.6292724609376	-420.7610168457032	1262.622680664062	940.8208618164064	-495.5558776855469	1306.984985351562	793.8075561523439	-472.4536132812501	1251.315795898438	807.3532714843751	-513.0424804687501	1274.0078125	745.4918823242189	-519.9392700195314	1307.117919921875	743.8160400390626	-473.2078247070313	1396.820434570312	1291.15625	-83.19016265869149	1271.264526367188	1302.701904296875	-61.71611022949227	1414.270385742188	1150.080444335938	-36.50436782836923	1309.208862304688	1123.968872070312	-16.21057128906258	1423.299926757812	1026.376220703125	28.12657737731925	1369.211669921875	999.1011352539064	-53.35167694091805	1450.702270507812	956.7769165039064	-49.728126525879	1432.751342773438	951.2219848632814	35.31040954589835	1550.329345703125	841.1686401367189	-39.96203994750986	1512.875610351562	805.9880371093751	8.099647521972564	1569.683227539062	773.2298583984376	-2.766692161560155	1588.252319335938	801.9500732421876	-42.6269416809083	1439.679565429688	956.9528198242189	-330.4100036621095	1428.747680664062	948.8195190429689	-97.61952972412118	1317.423217773438	978.2661132812501	-54.13169479370125	1325.5341796875	993.8049316406251	-51.64758300781258	1230.3037109375	987.1450805664064	-177.1295013427735	1224.569702148438	983.4150390625001	-230.9373931884766	1230.6005859375	986.5122680664064	-280.8175659179688	1357.224853515625	1009.890930175781	-390.3878784179688	1371.725830078125	961.4703369140626	-394.1239013671876	1364.07470703125	919.8682250976564	-415.9785156250001	1512.586547851562	649.5577392578126	-373.2207641601564	1448.753662109375	616.5632324218751	-372.6739501953126	1491.828979492188	532.6721801757814	-345.3483886718751	1554.402221679688	569.7305908203126	-338.6410217285157	1584.06298828125	576.4500122070314	-270.8963012695314	1515.922973632812	624.2953491210939	-212.8750000000001	1410.101318359375	553.5063476562501	-298.6239013671876	1560.515747070312	499.9480895996095	-317.5471801757814	1544.217163085938	497.4253845214845	-210.6815795898438	1587.119750976562	358.2476806640626	-328.8776855468751	1514.886108398438	350.7396850585939	-342.445526123047	1522.263671875	278.8225402832032	-331.7282714843751	1594.445068359375	285.0845642089845	-325.8119506835939	1581.1513671875	318.519500732422	-214.1215209960938	1605.26318359375	88.36599731445322	-299.6427001953126	1602.851806640625	96.10981750488291	-211.5037689208985	1543.43115234375	62.17982864379892	-264.2485656738282	1664.002807617188	52.51606750488291	-300.0081481933595	1729.299682617188	47.34416580200206	-296.156463623047	1759.603637695312	74.82283782958996	-234.6052551269532	1803.652099609375	72.92653656005871	-249.3277282714845	1721.551513671875	61.41138076782237	-202.2445373535157	1662.95947265625	54.04040908813487	-201.7277221679689	1674.5869140625	108.2865066528321	-251.1132354736329	1356.340576171875	928.1472778320314	-39.71274566650399	1350.204833984375	626.9555053710939	-70.78732299804696	1278.044067382812	645.2484130859376	-56.36695861816414	1256.152099609375	553.4027099609376	-81.20741271972663	1322.922241210938	533.3898925781251	-92.1794967651368	1338.665649414062	494.5907592773438	-161.7474670410157	1367.486572265625	589.4528808593751	-204.3025665283204	1211.851318359375	632.6141357421876	-157.0617980957032	1263.845336914062	461.1222534179688	-110.363021850586	1273.713745117188	450.9269104003907	-208.151596069336	1183.279052734375	352.0466918945313	-100.2604446411134	1131.634399414062	403.6572875976563	-90.95076751708991	1078.798217773438	349.5402832031251	-94.48043823242195	1128.600708007812	298.3739624023438	-103.8779373168946	1165.853515625	322.2213745117188	-204.3435516357423	965.7891235351562	145.9788513183594	-137.2352142333985	984.2164306640625	156.7961120605469	-221.6403045654297	900.8038330078125	156.4826354980469	-178.0710906982422	1001.522338867188	72.37709045410162	-138.3332824707032	1040.866088867188	35.5411338806153	-131.5947570800782	1078.14111328125	50.36503219604499	-206.8647613525391	1122.257690429688	38.65975952148445	-208.7810668945313	1059.527954101562	28.35390663146979	-247.5849761962891	1009.156311035156	84.37323760986334	-233.6463012695313	1039.776733398438	121.7763061523438	-181.8258819580079	1323.974243164062	1527.021850585938	-303.6412353515626	1342.076049804688	1544.49609375	-145.5245513916016	1384.5341796875	1552.604125976562	-229.5340728759766	
677	2.704	1317.082397460938	1637.928100585938	-227.4126281738282	1383.977661132812	1546.083740234375	-312.5539855957032	1394.589599609375	1560.438598632812	-147.7811584472657	1299.070922851562	1529.613525390625	-144.6015625000001	1273.649169921875	1508.949462890625	-296.0424194335938	1337.103271484375	1361.130615234375	-383.8613891601563	1352.13134765625	1343.4296875	-64.10536193847665	1400.800415039062	1315.048706054688	-228.2354736328126	1465.178466796875	1096.80078125	-226.5360565185548	1493.926391601562	963.1791381835939	-216.2548217773438	1278.152099609375	1390.896118164062	-219.1356811523438	1219.532592773438	1180.620971679688	-228.4524383544923	1232.6162109375	1085.86572265625	-222.6798706054688	1379.894775390625	1305.039306640625	-377.6848754882813	1264.127807617188	1329.344604492188	-383.3734741210938	1345.72802734375	1150.32861328125	-431.5939636230469	1245.249633789062	1166.936889648438	-396.4632263183594	1288.450805664062	1041.387573242188	-479.1538696289063	1265.652465820312	1021.757019042969	-384.0557250976563	1296.814208984375	922.8143920898439	-421.4387817382813	1268.45947265625	940.9489746093751	-495.9748229980469	1313.61083984375	794.1796875000001	-473.3508300781251	1257.3857421875	807.4114379882814	-513.6336059570314	1280.357421875	745.7400512695314	-520.6027832031251	1313.521240234375	744.1788940429689	-474.0168762207032	1402.864501953125	1291.83349609375	-83.9982452392579	1276.679077148438	1303.082763671875	-61.95258331298836	1419.157836914062	1150.495483398438	-36.73805618286141	1313.884033203125	1124.6318359375	-17.00224876403817	1427.292114257812	1026.786254882812	27.90954208374015	1372.737670898438	999.9789428710939	-52.92995071411141	1454.374267578125	957.1635131835939	-49.81900405883798	1436.203491210938	951.3910522460939	35.37498855590812	1553.383666992188	840.0072021484376	-38.78827667236337	1514.853149414062	805.0983886718751	9.264267921447662	1571.222412109375	771.8903198242189	-1.318526268005467	1590.605590820312	800.0821533203126	-41.64375686645518	1445.04296875	958.0317382812501	-330.7865295410157	1435.144775390625	949.2459106445314	-98.26778411865243	1323.69091796875	977.9041748046876	-54.18903350830086	1332.1806640625	994.3185424804689	-51.32212066650398	1234.592651367188	987.9790039062501	-176.6113739013673	1229.903442382812	983.8843994140626	-230.7003326416016	1235.827514648438	987.1090698242189	-280.5229492187501	1362.5556640625	1010.941162109375	-390.6813659667969	1376.898193359375	962.7000122070314	-394.0971069335938	1369.308837890625	921.1996459960939	-416.0712280273438	1518.090209960938	649.9631958007814	-371.9854431152345	1455.056518554688	617.5598754882814	-372.7268981933595	1496.900390625	533.6123046875001	-345.3119201660157	1559.892700195312	570.8282470703126	-339.0362854003907	1588.730224609375	576.9045410156251	-270.6430664062501	1520.48193359375	624.9919433593751	-213.1535034179688	1414.860107421875	554.3296508789064	-299.2737121582032	1565.784912109375	500.8313293457032	-316.985321044922	1547.602294921875	498.4971923828126	-210.8103332519532	1591.092041015625	358.5640563964845	-328.9244995117189	1519.115356445312	351.4377441406251	-343.0987854003907	1525.790283203125	279.3446655273439	-332.3746032714845	1598.015502929688	285.0970153808595	-325.6084289550782	1584.001342773438	318.6171264648439	-213.6768646240235	1606.141357421875	88.26934814453135	-299.4417724609376	1603.8759765625	96.06134033203135	-211.0843963623048	1543.897827148438	62.44931411743173	-264.1275939941407	1664.330688476562	52.19659423828135	-299.749969482422	1729.778198242188	46.29911041259776	-295.9279785156251	1760.4912109375	73.18936920166027	-233.943572998047	1804.46533203125	70.72828674316418	-248.9131469726564	1722.200805664062	59.98753356933604	-201.7917480468751	1663.314208984375	53.14270782470713	-201.2151489257814	1675.621704101562	107.5196838378907	-250.6712646484376	1362.532958984375	928.2634277343751	-40.13541030883798	1355.969970703125	626.2186889648439	-71.05777740478524	1284.1943359375	646.0351562500001	-57.13559341430672	1263.8154296875	552.8211059570314	-81.1196365356446	1330.764404296875	533.1920776367189	-91.71498870849618	1346.998291015625	493.7959594726563	-161.1804656982423	1375.067749023438	589.1736450195314	-204.0022125244141	1219.26318359375	631.4843750000001	-157.4956359863282	1272.422485351562	460.2389831542969	-109.3579864501954	1281.627807617188	451.0206909179688	-207.8494873046876	1189.760864257812	352.2409973144532	-99.36775207519538	1138.729125976562	404.5582885742188	-90.52355194091804	1085.263671875	351.0810241699219	-94.10156250000007	1134.39892578125	299.3162231445313	-102.736442565918	1172.733764648438	322.0742797851563	-203.5054779052735	969.9076538085938	148.8143768310547	-136.6005401611329	988.9279174804688	159.0504302978516	-220.6760406494141	905.4754028320312	161.0783081054688	-177.6255035400391	1003.586303710938	73.99608612060553	-137.9387817382813	1041.762451171875	35.91115570068366	-131.491195678711	1076.810424804688	49.34333801269538	-206.8640594482422	1122.711059570312	38.29614639282234	-208.7478332519532	1059.86279296875	28.71641159057624	-247.5687255859376	1011.890563964844	86.09675598144537	-233.1784210205079	1043.130615234375	122.5141067504883	-181.1759185791016	1328.813354492188	1527.5166015625	-304.2982177734376	1346.830200195312	1545.026123046875	-146.1913604736329	1389.28369140625	1553.261108398438	-230.1675720214845	
